<svg width="52" height="53" viewBox="0 0 52 53" fill="none" xmlns="http://www.w3.org/2000/svg">
<path d="M2.09543 18.7329L26 1.36525L49.9046 18.7329L40.7738 46.8344H11.2262L2.09543 18.7329Z" stroke="#700C18" stroke-width="1.4"/>
<path fill-rule="evenodd" clip-rule="evenodd" d="M19.7204 29.3871C20.5018 28.6057 21.5616 28.1667 22.6667 28.1667H29.3333C30.4384 28.1667 31.4982 28.6057 32.2796 29.3871C33.061 30.1685 33.5 31.2283 33.5 32.3334V34C33.5 34.4603 33.1269 34.8334 32.6667 34.8334C32.2064 34.8334 31.8333 34.4603 31.8333 34V32.3334C31.8333 31.6703 31.5699 31.0344 31.1011 30.5656C30.6323 30.0967 29.9964 29.8334 29.3333 29.8334H22.6667C22.0036 29.8334 21.3677 30.0967 20.8989 30.5656C20.4301 31.0344 20.1667 31.6703 20.1667 32.3334V34C20.1667 34.4603 19.7936 34.8334 19.3333 34.8334C18.8731 34.8334 18.5 34.4603 18.5 34V32.3334C18.5 31.2283 18.939 30.1685 19.7204 29.3871Z" fill="#700C18"/>
<path fill-rule="evenodd" clip-rule="evenodd" d="M25.9999 19.8334C24.6192 19.8334 23.4999 20.9526 23.4999 22.3334C23.4999 23.7141 24.6192 24.8334 25.9999 24.8334C27.3806 24.8334 28.4999 23.7141 28.4999 22.3334C28.4999 20.9526 27.3806 19.8334 25.9999 19.8334ZM21.8333 22.3334C21.8333 20.0322 23.6987 18.1667 25.9999 18.1667C28.3011 18.1667 30.1666 20.0322 30.1666 22.3334C30.1666 24.6345 28.3011 26.5 25.9999 26.5C23.6987 26.5 21.8333 24.6345 21.8333 22.3334Z" fill="#700C18"/>
</svg>
