<svg width="52" height="53" viewBox="0 0 52 53" fill="none" xmlns="http://www.w3.org/2000/svg">
<path d="M2.09543 18.7329L26 1.36525L49.9046 18.7329L40.7738 46.8344H11.2262L2.09543 18.7329Z" stroke="#700C18" stroke-width="1.4"/>
<path fill-rule="evenodd" clip-rule="evenodd" d="M19.3333 23.1667C18.873 23.1667 18.4999 23.5398 18.4999 24V32.3334C18.4999 32.7936 18.873 33.1667 19.3333 33.1667H32.6666C33.1268 33.1667 33.4999 32.7936 33.4999 32.3334V24C33.4999 23.5398 33.1268 23.1667 32.6666 23.1667H19.3333ZM16.8333 24C16.8333 22.6193 17.9525 21.5 19.3333 21.5H32.6666C34.0473 21.5 35.1666 22.6193 35.1666 24V32.3334C35.1666 33.7141 34.0473 34.8334 32.6666 34.8334H19.3333C17.9525 34.8334 16.8333 33.7141 16.8333 32.3334V24Z" fill="#700C18"/>
<path fill-rule="evenodd" clip-rule="evenodd" d="M22.5655 18.8989C23.0343 18.4301 23.6702 18.1667 24.3333 18.1667H27.6666C28.3296 18.1667 28.9655 18.4301 29.4344 18.8989C29.9032 19.3678 30.1666 20.0036 30.1666 20.6667V34C30.1666 34.4603 29.7935 34.8334 29.3333 34.8334C28.873 34.8334 28.4999 34.4603 28.4999 34V20.6667C28.4999 20.4457 28.4121 20.2337 28.2558 20.0774C28.0996 19.9212 27.8876 19.8334 27.6666 19.8334H24.3333C24.1122 19.8334 23.9003 19.9212 23.744 20.0774C23.5877 20.2337 23.4999 20.4457 23.4999 20.6667V34C23.4999 34.4603 23.1268 34.8334 22.6666 34.8334C22.2063 34.8334 21.8333 34.4603 21.8333 34V20.6667C21.8333 20.0036 22.0966 19.3678 22.5655 18.8989Z" fill="#700C18"/>
</svg>
